<?xml version="1.0" standalone="no"?>
<!DOCTYPE svg PUBLIC "-//W3C//DTD SVG 20010904//EN"
 "http://www.w3.org/TR/2001/REC-SVG-20010904/DTD/svg10.dtd">
<svg version="1.0" xmlns="http://www.w3.org/2000/svg"
 width="500.000000pt" height="500.000000pt" viewBox="0 0 500.000000 500.000000"
 preserveAspectRatio="xMidYMid meet" style="background-color:white">

    <defs>
        <radialGradient id="Gradient" cx="0.5" cy="0.5" r="0.5" fx="0.5" fy="0.5">
            <stop offset="0%" stop-color="red" />
            <stop offset="100%" stop-color="#005596" />
        </radialGradient>
    </defs>

<g transform="translate(0.000000,500.000000) scale(0.100000,-0.100000)"
fill="url(#Gradient)" stroke="none">
<path d="M2440 4726 c0 -9 71 -39 76 -33 7 7 -20 25 -49 32 -15 4 -27 4 -27 1z"/>
<path d="M2235 4700 c-3 -6 1 -7 9 -4 18 7 21 14 7 14 -6 0 -13 -4 -16 -10z"/>
<path d="M2273 4605 c-18 -8 -33 -17 -33 -20 0 -8 50 5 80 21 22 12 22 13 5
13 -11 0 -35 -6 -52 -14z"/>
<path d="M2525 4578 c51 -30 75 -40 75 -29 0 14 -48 41 -83 47 l-32 6 40 -24z"/>
<path d="M2320 4564 c-64 -23 -128 -69 -183 -133 -91 -106 -211 -396 -267
-646 -13 -55 -26 -103 -30 -108 -3 -4 -31 3 -61 16 -75 33 -316 111 -435 141
-319 80 -522 52 -592 -79 -21 -40 -20 -146 3 -216 39 -122 139 -293 253 -432
30 -37 53 -69 51 -71 -2 -1 -38 -11 -79 -21 -233 -55 -428 -152 -490 -242 -36
-53 -17 -48 43 10 83 81 245 155 472 215 l71 18 131 -136 c127 -131 130 -137
117 -160 -7 -14 -13 -44 -14 -67 0 -39 -4 -45 -52 -81 -88 -65 -145 -121 -125
-122 20 0 84 38 145 87 24 20 46 33 49 30 10 -11 -8 -26 -123 -108 -64 -45
-139 -100 -167 -123 -57 -44 -75 -46 -143 -16 -66 31 -144 60 -157 60 -21 0
56 -43 118 -65 111 -39 112 -28 -20 -156 -250 -243 -347 -433 -301 -591 31
-108 144 -198 284 -227 110 -23 284 -10 456 34 50 12 93 21 94 20 2 -2 -4 -30
-13 -62 -11 -36 -20 -118 -25 -218 -5 -88 -9 -161 -9 -162 -1 -2 -8 -3 -16 -3
-20 0 -19 -13 3 -39 13 -17 29 -22 72 -24 73 -3 171 43 240 112 28 28 76 68
108 90 31 21 68 51 81 65 14 14 28 26 31 26 4 0 14 -18 23 -41 24 -60 38 -39
18 26 -20 66 -41 93 -41 54 0 -20 -15 -37 -72 -78 l-73 -53 -3 49 c-6 97 -79
121 -164 53 -22 -18 -42 -30 -44 -27 -3 3 -7 36 -8 73 -6 117 -5 112 -18 90
-8 -15 -8 -21 0 -24 7 -2 12 -10 12 -18 0 -9 -4 -12 -10 -9 -6 4 -7 -1 -3 -11
4 -11 3 -15 -5 -10 -11 7 -18 -18 -25 -94 -3 -22 -4 -14 -5 21 -2 57 23 211
37 238 5 7 46 26 91 42 46 16 120 45 164 65 117 51 113 51 121 12 8 -40 85
-270 130 -389 39 -100 123 -271 173 -349 48 -76 154 -184 202 -205 24 -11 37
-22 33 -31 -4 -10 6 -12 49 -8 150 16 245 88 367 279 73 114 118 205 126 251
4 21 13 59 20 84 26 82 53 194 60 240 10 70 36 151 46 145 5 -4 17 -8 26 -10
10 -2 54 -12 98 -23 111 -29 263 -52 338 -52 68 0 145 29 181 69 27 29 25 118
-4 174 -63 122 -174 170 -271 115 -22 -12 -39 -24 -39 -27 0 -3 -7 -14 -14
-24 -13 -16 -18 -16 -97 13 -46 17 -99 36 -117 43 -32 10 -34 13 -28 46 2 20
10 101 16 181 7 80 16 152 20 161 5 9 6 20 3 23 -3 3 -5 41 -4 83 1 77 2 78
38 108 20 17 99 83 175 148 75 64 142 117 147 117 23 0 315 -260 304 -270 -16
-15 -372 -123 -513 -156 -76 -17 -127 -42 -60 -29 152 30 471 119 556 156 l43
18 59 -62 c188 -198 308 -380 348 -530 41 -153 -12 -286 -139 -350 -94 -48
-258 -67 -410 -48 -61 8 -90 0 -71 -19 33 -33 278 -36 397 -5 170 44 277 164
277 309 -1 166 -127 390 -359 638 -62 66 -70 79 -54 84 158 56 327 148 375
204 16 19 38 45 49 56 21 24 25 48 7 42 -7 -3 -26 15 -41 39 -17 26 -44 50
-64 58 -19 8 -47 24 -62 35 -38 26 -158 74 -256 101 -44 11 -82 23 -84 25 -2
2 28 39 67 82 106 118 197 243 244 335 35 69 42 94 46 158 5 80 -7 118 -52
167 -38 43 -140 82 -213 82 -24 0 -33 5 -33 17 0 15 -1 15 -18 0 -39 -35 -39
-14 -2 66 35 77 80 205 80 230 0 29 -25 -21 -76 -154 -30 -79 -59 -148 -64
-153 -22 -22 -20 5 4 62 25 58 66 196 66 217 -1 23 -33 -52 -65 -157 -20 -61
-40 -117 -45 -124 -6 -6 -45 -14 -88 -18 -86 -8 -292 -59 -426 -106 -48 -17
-89 -30 -91 -28 -2 2 -10 30 -18 64 -9 33 -34 103 -57 155 -60 136 -61 126 12
189 35 30 79 72 98 94 l35 40 -32 -19 c-18 -11 -67 -50 -109 -88 l-77 -69 -27
59 c-23 49 -36 64 -75 86 -26 15 -50 25 -54 23 -14 -9 -50 31 -108 119 -133
198 -283 285 -413 239z m172 -34 c83 -31 173 -120 243 -240 5 -8 -22 13 -60
48 -38 34 -98 77 -134 94 -86 42 -190 45 -261 9 -106 -55 -189 -150 -267 -307
-25 -52 -48 -92 -51 -90 -8 9 81 215 124 284 120 191 255 259 406 202z m53
-138 c58 -29 195 -158 195 -182 0 -6 -16 -24 -35 -41 -23 -21 -36 -43 -40 -67
-4 -20 -10 -49 -15 -64 -19 -61 37 -172 100 -198 16 -7 30 -15 30 -19 -1 -3
-42 -53 -92 -111 -49 -58 -126 -153 -170 -211 l-79 -105 -142 71 c-168 84
-271 130 -349 157 -32 11 -58 24 -58 30 0 19 50 207 79 295 59 180 167 359
252 419 73 51 117 64 194 61 54 -3 84 -11 130 -35z m329 -313 c36 -31 65 -94
124 -274 41 -126 47 -156 31 -165 -17 -11 -39 20 -75 105 -29 70 -60 107 -159
191 -46 38 -48 43 -48 89 0 84 63 111 127 54z m-1602 -259 c112 -24 314 -85
458 -138 87 -32 105 -41 103 -58 -2 -10 -12 -73 -22 -139 -11 -66 -25 -171
-31 -234 -6 -63 -13 -117 -15 -121 -2 -4 -60 -10 -127 -13 -129 -6 -367 -37
-476 -62 -35 -8 -68 -13 -73 -10 -17 11 -148 192 -197 273 -79 130 -114 223
-119 317 -4 66 -1 86 15 115 22 40 81 77 144 90 61 13 231 3 340 -20z m1615
-111 c23 -57 42 -109 42 -115 1 -11 -200 -100 -244 -108 -29 -6 -67 -22 -137
-56 -34 -17 -65 -29 -70 -28 -4 2 28 47 72 101 140 173 271 318 283 314 7 -2
31 -51 54 -108z m929 66 c-18 -44 -16 -49 8 -22 30 32 78 36 163 11 119 -35
166 -132 128 -269 -27 -101 -145 -276 -291 -433 l-59 -63 -53 16 c-29 9 -61
14 -70 12 -9 -2 11 -9 46 -17 34 -7 62 -17 62 -22 0 -6 -12 -7 -27 -3 -43 10
-147 7 -176 -6 -14 -6 -31 -24 -38 -40 -14 -35 4 -69 51 -98 l29 -17 -43 -43
-44 -43 -78 58 c-44 32 -93 68 -111 81 l-32 23 46 73 c54 86 76 107 103 100
24 -6 27 12 3 26 -15 8 -14 13 12 53 77 116 234 387 292 506 36 72 69 132 75
132 6 0 7 -7 4 -15z m-86 -5 c0 -5 -15 -44 -34 -87 -18 -43 -39 -94 -45 -113
-10 -33 -66 -135 -202 -368 l-54 -92 -70 5 c-56 5 -66 4 -51 -6 15 -9 16 -13
5 -21 -10 -6 -5 -8 16 -7 78 5 80 -2 25 -86 -60 -92 -56 -89 -100 -58 -39 27
-40 29 -40 90 0 51 3 61 15 57 8 -4 15 -2 15 4 0 5 -9 12 -20 15 -14 3 -20 14
-20 31 0 14 5 26 11 26 13 0 4 303 -12 380 -20 98 -29 88 121 136 74 24 176
52 225 63 198 44 215 46 215 31z m40 3 c0 -14 -41 -75 -46 -70 -8 8 24 77 35
77 6 0 11 -3 11 -7z m-1802 -184 c327 -149 445 -205 446 -212 0 -4 -78 -49
-174 -98 -96 -50 -194 -101 -218 -115 -32 -19 -60 -26 -117 -29 -41 -2 -76 -1
-78 3 -12 22 50 482 65 482 5 0 39 -14 76 -31z m1017 -236 c22 -114 44 -203
51 -209 19 -15 18 -21 -8 -29 l-23 -7 25 -7 c15 -4 26 -15 28 -29 l3 -22 -39
20 c-22 12 -43 28 -46 36 -3 8 -15 14 -26 14 -22 0 -61 17 -70 30 -3 4 -23 16
-45 28 -105 53 -175 94 -175 105 0 6 10 22 23 35 l22 24 -32 -7 c-43 -9 -42 4
2 51 19 20 35 40 35 44 0 4 37 25 83 47 82 40 151 72 153 73 1 0 19 -89 39
-197z m-275 -124 c38 -22 74 -47 81 -55 6 -8 19 -14 28 -14 10 0 26 -7 37 -16
17 -14 10 -15 -96 -10 -63 3 -155 6 -203 6 -61 0 -86 3 -81 11 3 6 14 9 24 6
12 -3 17 0 14 8 -4 10 107 105 123 105 2 0 35 -18 73 -41z m-352 -11 c20 -20
13 -54 -17 -84 -34 -33 -256 -176 -363 -234 -43 -23 -110 -48 -161 -60 -103
-24 -140 -41 -176 -82 -62 -71 -122 -128 -134 -128 -70 1 -76 52 -13 106 63
54 112 76 136 62 16 -10 23 -9 39 9 11 11 17 24 14 27 -4 3 -1 6 6 6 7 0 11 6
8 14 -7 18 53 88 106 125 50 34 429 230 466 241 39 12 76 11 89 -2z m-448
-113 c0 -5 -77 -55 -85 -55 -7 0 -6 46 2 53 7 8 83 10 83 2z m-148 -45 c-4
-43 -10 -48 -97 -95 -38 -20 -84 -48 -102 -61 -17 -13 -64 -39 -105 -57 -40
-19 -79 -41 -87 -50 -7 -10 -19 -17 -25 -17 -18 0 -230 230 -220 240 19 18
501 80 599 76 39 -1 40 -1 37 -36z m25 -12 c-2 -13 -4 -5 -4 17 -1 22 1 32 4
23 2 -10 2 -28 0 -40z m1000 21 l191 3 44 -30 c43 -30 44 -31 56 -114 7 -46
12 -102 12 -124 0 -50 10 -85 21 -78 5 3 9 0 9 -6 0 -22 -33 -74 -119 -188
-84 -112 -171 -230 -275 -373 -28 -39 -73 -84 -108 -109 l-60 -42 -66 30 c-37
16 -75 32 -84 35 -20 7 -25 -9 -5 -16 6 -2 9 -7 6 -11 -9 -9 -111 27 -152 53
l-32 21 63 0 c34 0 62 4 62 10 0 12 -39 12 -97 1 -39 -8 -47 -5 -135 48 -110
67 -274 177 -282 189 -3 5 37 85 89 177 52 93 95 170 95 172 0 2 21 38 48 81
26 42 53 89 59 104 7 15 22 33 34 40 12 7 65 41 118 76 l96 63 110 -8 c61 -4
196 -6 302 -4z m1098 -115 c29 -13 27 -14 -29 -8 -70 7 -88 13 -80 26 7 12 66
2 109 -18z m-665 -39 c17 -9 30 -17 30 -20 0 -8 -63 -105 -69 -105 -3 0 -5 31
-3 70 2 38 6 70 8 70 3 0 18 -7 34 -15z m-1124 -27 c-9 -13 -32 -52 -51 -88
-19 -36 -51 -92 -70 -125 -20 -33 -59 -106 -88 -162 -28 -57 -55 -103 -58
-103 -7 0 -18 307 -11 327 2 6 16 16 32 23 16 7 80 43 142 81 62 38 115 69
117 69 2 0 -4 -10 -13 -22z m1974 -32 c39 -15 59 -29 68 -49 31 -65 -18 -125
-169 -202 -60 -31 -109 -60 -109 -65 0 -16 9 -13 116 39 56 27 120 65 142 85
42 39 68 93 59 127 -8 29 11 23 49 -15 46 -46 44 -75 -8 -132 -32 -35 -77 -63
-200 -124 l-159 -80 -102 91 c-56 50 -130 112 -164 137 -35 26 -63 52 -63 57
0 6 19 27 43 47 36 30 52 36 102 40 37 3 87 16 130 35 106 47 162 49 265 9z
m-740 -18 c31 -24 78 -58 104 -76 26 -18 46 -37 44 -41 -4 -11 -309 -271 -318
-271 -4 0 -3 24 1 54 4 29 10 98 14 152 7 93 10 102 49 161 22 34 43 63 45 63
2 0 29 -19 61 -42z m-1539 -279 c5 -84 7 -154 5 -157 -2 -2 -46 29 -96 68
l-91 73 43 46 c97 104 123 129 126 126 2 -2 8 -72 13 -156z m1326 -22 c-2 -61
-7 -119 -13 -127 -7 -13 -152 -123 -340 -260 -54 -39 -66 -38 -26 3 54 55 254
320 318 420 16 27 35 44 42 42 7 -3 10 0 7 5 -6 10 1 30 11 30 2 0 2 -51 1
-113z m-1738 -21 c47 -25 125 -31 162 -12 17 9 35 16 39 16 4 0 52 -34 106
-75 54 -41 102 -75 106 -75 16 0 7 -28 -44 -128 -44 -89 -54 -103 -72 -98 -12
3 -73 12 -136 21 -139 20 -300 50 -395 75 -38 10 -82 21 -97 24 -16 4 -28 10
-28 14 0 8 47 46 214 174 56 43 105 78 109 78 4 0 21 -7 36 -14z m1736 -198
c-4 -35 -9 -70 -12 -78 -2 -8 -6 -49 -8 -90 -3 -96 -26 -272 -36 -284 -4 -4
-20 -1 -36 8 -45 26 -212 86 -238 86 -13 0 -36 5 -52 11 -15 6 -48 13 -73 15
-68 5 -79 8 -73 17 3 4 10 6 16 4 7 -2 25 9 42 25 16 15 73 57 125 93 52 35
151 107 220 159 69 52 126 95 128 95 2 1 0 -27 -3 -61z m-1259 -5 c-7 -7 -26
7 -26 19 0 6 6 6 15 -2 9 -7 13 -15 11 -17z m-42 -105 c10 -132 34 -314 60
-451 23 -119 22 -130 -13 -139 -10 -2 -20 23 -35 92 -20 91 -38 120 -44 74 -2
-12 6 -57 16 -100 11 -44 18 -82 16 -85 -2 -3 -70 -32 -151 -63 -82 -32 -156
-62 -166 -67 -11 -6 -21 -8 -24 -5 -14 13 163 483 252 672 13 28 34 76 45 108
12 31 25 56 29 56 5 0 11 -42 15 -92z m75 54 c25 -21 76 -57 113 -81 37 -23
68 -46 70 -49 6 -14 219 -153 302 -197 10 -5 19 -14 19 -20 0 -18 -465 -277
-476 -265 -7 7 -56 333 -63 417 -3 37 -9 95 -14 128 -11 75 -12 105 -4 105 3
0 27 -17 53 -38z m-812 -22 c56 -19 242 -63 313 -74 108 -16 181 -25 233 -30
32 -2 60 -6 62 -8 2 -2 -20 -60 -50 -129 -61 -142 -156 -408 -175 -486 -11
-50 -34 -83 -47 -70 -3 4 4 41 17 83 12 41 19 78 16 81 -6 7 -10 -3 -41 -98
-12 -40 -29 -75 -36 -79 -21 -11 -193 -48 -288 -61 -164 -23 -324 4 -416 70
-22 16 -53 50 -70 77 -27 43 -30 55 -30 133 0 79 3 93 38 166 21 44 63 113 94
153 68 88 280 292 305 292 10 0 44 -9 75 -20z m1223 -195 c48 -28 95 -55 105
-59 13 -5 15 -10 8 -17 -8 -8 -17 -7 -32 3 -12 8 -19 17 -16 19 2 3 -20 16
-50 29 -30 13 -55 28 -55 33 0 4 -4 5 -10 2 -5 -3 -10 -2 -10 3 0 5 -16 17
-35 28 -19 10 -35 22 -35 27 0 9 16 1 130 -68z m161 -161 c26 -13 29 -18 18
-32 -28 -37 -77 -74 -129 -98 -201 -94 -318 -159 -307 -171 8 -7 130 52 242
116 95 54 116 62 94 34 -8 -10 12 5 43 32 31 28 56 56 57 63 2 21 40 5 91 -38
91 -75 181 -125 350 -192 41 -17 76 -32 78 -33 2 -2 -20 -72 -48 -156 -84
-251 -184 -431 -309 -558 -84 -85 -154 -121 -233 -121 -115 0 -199 69 -281
228 -47 91 -127 309 -127 346 0 12 -4 26 -9 32 -5 5 -19 54 -31 109 -12 55
-26 113 -31 129 -5 16 -9 33 -9 37 0 4 53 35 118 67 119 60 289 156 352 198
41 28 34 28 71 8z m504 -48 c55 -18 147 -56 205 -82 127 -59 177 -63 255 -21
85 46 152 31 181 -40 12 -28 12 -39 2 -61 -23 -47 -57 -56 -162 -41 -50 7
-158 14 -241 14 -145 1 -153 2 -228 33 -157 64 -223 111 -242 171 -3 12 -10
21 -15 21 -4 0 -7 8 -5 18 2 9 4 21 4 26 2 18 148 -4 246 -38z m-1057 -257
c14 -106 104 -416 160 -549 100 -239 241 -361 381 -331 159 34 310 205 453
511 58 123 54 86 -7 -80 -76 -207 -153 -337 -258 -440 -83 -80 -118 -100 -180
-100 -202 0 -392 290 -566 866 -34 111 -37 140 -18 147 21 9 32 1 35 -24z
m-478 -166 c0 -5 -7 -33 -15 -63 -9 -30 -19 -106 -22 -169 -7 -123 -18 -129
-25 -12 -6 85 15 230 34 242 16 11 28 11 28 2z m170 -304 c0 -32 -67 -91 -98
-87 -36 4 -37 20 -6 58 43 51 104 68 104 29z"/>
<path d="M2571 3700 c-62 -72 -99 -130 -82 -130 8 0 71 76 154 188 6 8 6 12
-1 12 -6 0 -38 -31 -71 -70z"/>
<path d="M3485 3050 c17 -4 46 -8 65 -8 32 0 33 1 10 8 -14 4 -43 8 -65 8 -38
0 -39 -1 -10 -8z"/>
<path d="M3598 3033 c7 -3 16 -2 19 1 4 3 -2 6 -13 5 -11 0 -14 -3 -6 -6z"/>
<path d="M2603 3178 c-40 -6 -73 -13 -73 -16 0 -4 26 -6 58 -5 31 0 86 2 121
2 66 1 76 8 25 17 -16 3 -36 6 -44 8 -8 2 -48 -1 -87 -6z"/>
<path d="M1480 2675 c-11 -13 -8 -15 14 -15 16 0 26 5 26 15 0 8 -6 15 -14 15
-7 0 -19 -7 -26 -15z"/>
<path d="M2359 2934 c-12 -13 -18 -24 -13 -24 5 -1 -1 -9 -13 -19 -13 -11 -32
-17 -42 -14 -13 3 -23 -2 -31 -16 -8 -15 -19 -21 -38 -19 -25 3 -27 1 -27 -38
0 -26 -7 -49 -17 -61 -10 -11 -18 -26 -18 -34 0 -25 -21 -38 -55 -32 -36 6
-40 3 -49 -47 -4 -25 -1 -42 9 -55 14 -19 15 -17 10 25 -4 35 -3 39 3 15 5
-17 13 -39 19 -50 7 -13 8 -28 1 -48 -8 -21 -7 -31 0 -36 16 -10 27 -71 13
-71 -22 0 13 -51 45 -65 31 -13 52 -59 33 -71 -14 -8 -11 -19 11 -44 11 -13
20 -18 20 -11 0 8 6 8 23 -1 12 -7 23 -14 25 -15 3 -1 9 -27 11 -45 2 -15 63
-8 92 9 22 13 34 15 46 7 26 -16 27 -34 3 -34 -13 0 -19 -4 -14 -11 4 -8 35
-9 98 -4 86 6 216 33 169 34 -26 1 -27 3 -12 54 7 25 16 37 28 37 9 0 30 17
46 38 16 20 44 51 61 68 17 16 35 40 38 52 4 12 23 29 42 38 32 16 34 19 30
60 -2 24 0 47 5 50 5 3 9 14 9 24 0 10 11 31 25 46 30 33 29 58 -3 62 -24 4
-56 58 -45 76 4 5 1 6 -4 3 -11 -7 -35 15 -32 29 7 39 -1 46 -43 39 -24 -4
-48 -11 -55 -17 -21 -17 -61 3 -81 40 -19 36 -29 41 -104 46 -21 2 -43 8 -50
13 -13 10 -73 25 -64 15 3 -2 -2 -11 -10 -19 -13 -14 -17 -13 -29 3 -8 11 -15
22 -15 25 -1 19 -31 15 -51 -7z m281 -69 c0 -8 -4 -15 -10 -15 -5 0 -10 7 -10
15 0 8 5 15 10 15 6 0 10 -7 10 -15z m-100 -128 c19 -13 68 -36 108 -51 39
-15 79 -37 87 -49 37 -53 1 -137 -73 -173 -23 -11 -40 -23 -37 -26 4 -3 -9
-11 -29 -18 -19 -6 -40 -18 -47 -26 -16 -19 -74 -44 -103 -44 -33 0 -83 36
-102 72 -15 29 -16 43 -4 145 14 120 33 167 73 183 40 16 91 11 127 -13z"/>
<path d="M2070 2400 c0 -5 5 -10 11 -10 5 0 7 5 4 10 -3 6 -8 10 -11 10 -2 0
-4 -4 -4 -10z"/>
<path d="M2998 2203 c7 -3 16 -2 19 1 4 3 -2 6 -13 5 -11 0 -14 -3 -6 -6z"/>
<path d="M2801 2069 c-51 -33 -91 -63 -88 -66 9 -8 123 56 164 93 58 51 28 40
-76 -27z"/>
<path d="M1755 2130 c3 -5 8 -10 11 -10 2 0 4 5 4 10 0 6 -5 10 -11 10 -5 0
-7 -4 -4 -10z"/>
<path d="M1871 2126 c12 -10 79 -16 79 -6 0 5 -19 10 -42 10 -23 0 -39 -2 -37
-4z"/>
<path d="M1244 2106 c11 -9 38 -16 60 -16 55 0 34 18 -29 26 -47 5 -49 4 -31
-10z"/>
<path d="M2429 1733 c-32 -39 -44 -57 -32 -50 13 8 57 67 50 67 -2 0 -10 -8
-18 -17z"/>
<path d="M2135 1469 c-66 -67 -109 -113 -95 -103 28 21 227 224 219 224 -2 0
-58 -55 -124 -121z"/>
<path d="M1056 4021 c-9 -14 26 -31 63 -31 29 0 41 13 23 24 -19 11 -80 17
-86 7z"/>
<path d="M1460 3931 c0 -13 61 -40 73 -34 10 6 -19 28 -50 37 -14 5 -23 3 -23
-3z"/>
<path d="M4180 3855 c0 -3 24 -17 54 -31 29 -14 64 -36 77 -50 26 -28 41 -31
32 -6 -11 32 -56 72 -92 82 -39 11 -71 13 -71 5z"/>
<path d="M4351 3568 c-7 -24 -22 -60 -32 -80 -25 -48 -25 -66 0 -44 23 21 65
146 53 158 -5 5 -14 -10 -21 -34z"/>
<path d="M4421 2662 c-14 -25 -14 -42 -1 -42 16 0 33 41 22 52 -7 7 -14 3 -21
-10z"/>
<path d="M423 1792 c-50 -68 -84 -164 -63 -177 7 -4 14 2 17 15 3 12 23 58 44
102 22 44 39 81 39 84 0 13 -19 0 -37 -24z"/>
<path d="M3036 1444 c-4 -20 -5 -38 -2 -41 2 -3 8 11 12 31 3 21 4 39 1 42 -2
3 -8 -11 -11 -32z"/>
<path d="M400 1387 c0 -31 66 -99 112 -116 22 -8 26 -7 21 5 -3 8 -9 14 -14
14 -5 0 -33 25 -64 56 -30 31 -55 50 -55 41z"/>
<path d="M3015 1360 c-4 -17 -5 -34 -2 -36 3 -3 8 9 12 26 4 17 5 34 2 36 -3
3 -8 -9 -12 -26z"/>
<path d="M2987 1243 c-9 -31 -15 -58 -13 -61 2 -2 12 22 21 53 9 32 14 59 12
61 -2 3 -11 -21 -20 -53z"/>
<path d="M1890 1235 c0 -8 2 -15 4 -15 2 0 6 7 10 15 3 8 1 15 -4 15 -6 0 -10
-7 -10 -15z"/>
<path d="M1955 1035 c4 -16 17 -56 30 -87 18 -47 20 -58 8 -58 -10 0 -12 -7
-8 -22 9 -32 41 -73 54 -71 6 2 27 -23 47 -55 45 -70 115 -155 122 -147 3 2
-2 13 -10 22 -8 10 -18 29 -21 43 -4 14 -27 48 -52 75 -41 44 -115 169 -115
193 0 5 -14 38 -30 73 -18 38 -28 52 -25 34z"/>
<path d="M2853 884 c-14 -38 -106 -180 -151 -233 -28 -33 -38 -49 -25 -42 42
22 205 272 189 288 -3 3 -9 -3 -13 -13z"/>
<path d="M1473 883 c-7 -2 -13 -9 -13 -14 0 -14 24 -11 46 6 19 14 19 14 -1
14 -11 0 -26 -3 -32 -6z"/>
<path d="M2776 690 l-18 -35 22 21 c12 12 20 28 18 35 -3 9 -12 0 -22 -21z"/>
</g>
</svg>
